<svg width="78" height="78" viewBox="0 0 78 78" fill="none" xmlns="http://www.w3.org/2000/svg">
<g filter="url(#filter0_d_41_19)">
<rect x="4" width="70" height="70" rx="14" fill="black"/>
</g>
<path d="M26.1356 59.435V30.4096C26.1356 28.4322 25.686 27.0904 24.7869 26.3842C23.8877 25.678 22.4007 25.3249 20.3257 25.3249C19.3113 25.3249 18.3891 25.3955 17.5591 25.5367C16.7291 25.678 16.0836 25.8192 15.6225 25.9605V54.9859C15.6225 56.9633 16.0721 58.2933 16.9712 58.976C17.8703 59.6587 19.3574 60 21.4324 60C22.4468 60 23.369 59.9412 24.199 59.8235C25.0289 59.7057 25.6745 59.5763 26.1356 59.435Z" fill="white"/>
<path d="M16.6254 11.6949C15.5418 12.8249 15 14.1902 15 15.791C15 17.4388 15.5418 18.8277 16.6254 19.9576C17.709 21.0876 19.1269 21.6525 20.879 21.6525C22.6312 21.6525 24.0491 21.0876 25.1327 19.9576C26.2163 18.8277 26.7581 17.4388 26.7581 15.791C26.7581 14.1902 26.2163 12.8249 25.1327 11.6949C24.0491 10.565 22.6312 10 20.879 10C19.1269 10 17.709 10.565 16.6254 11.6949Z" fill="white"/>
<path d="M61.513 25.678C60.5216 25.0188 59.3112 24.6893 57.8818 24.6893C56.0374 24.6893 54.4005 25.0894 52.9711 25.8898C52.0489 30.033 51.0575 34.2702 49.997 38.6017C48.9364 42.9331 47.8759 46.935 46.8154 50.6073H46.4695C46.1929 49.5245 45.7779 48.0297 45.2245 46.1229C44.6712 44.2161 44.1179 42.274 43.5646 40.2966L40.5213 29.1384C40.0602 27.4435 39.3685 26.2782 38.4463 25.6427C37.5241 25.0071 36.3252 24.6893 34.8497 24.6893C33.697 24.6893 32.6248 24.9129 31.6335 25.3602C30.6421 25.8074 29.8697 26.3371 29.3164 26.9492C29.6392 28.4087 30.0772 30.0447 30.6305 31.8573C31.1839 33.67 31.7833 35.5767 32.4289 37.5777C33.0744 39.5786 33.7431 41.5796 34.4347 43.5805C35.1264 45.5815 35.8065 47.4647 36.4751 49.2302C37.1437 50.9958 37.7662 52.5847 38.3426 53.9972C38.919 55.4096 39.4147 56.516 39.8297 57.3164C40.3369 58.258 41.1669 58.9407 42.3196 59.3644C43.4724 59.7881 44.8557 60 46.4695 60C47.8528 60 49.1093 59.847 50.239 59.541C51.3687 59.2349 52.2103 58.8701 52.7636 58.4463C53.363 57.3164 54.0316 55.904 54.7694 54.209C55.5071 52.5141 56.2564 50.6897 57.0172 48.7359C57.778 46.782 58.5158 44.7811 59.2305 42.733C59.9452 40.685 60.5792 38.7665 61.1326 36.9774C61.6859 35.1883 62.1355 33.5876 62.4813 32.1751C62.8271 30.7627 63 29.7034 63 28.9972C63 27.4435 62.5043 26.3371 61.513 25.678Z" fill="white"/>
<defs>
<filter id="filter0_d_41_19" x="0" y="0" width="78" height="78" filterUnits="userSpaceOnUse" color-interpolation-filters="sRGB">
<feFlood flood-opacity="0" result="BackgroundImageFix"/>
<feColorMatrix in="SourceAlpha" type="matrix" values="0 0 0 0 0 0 0 0 0 0 0 0 0 0 0 0 0 0 127 0" result="hardAlpha"/>
<feOffset dy="4"/>
<feGaussianBlur stdDeviation="2"/>
<feComposite in2="hardAlpha" operator="out"/>
<feColorMatrix type="matrix" values="0 0 0 0 0 0 0 0 0 0 0 0 0 0 0 0 0 0 0.25 0"/>
<feBlend mode="normal" in2="BackgroundImageFix" result="effect1_dropShadow_41_19"/>
<feBlend mode="normal" in="SourceGraphic" in2="effect1_dropShadow_41_19" result="shape"/>
</filter>
</defs>
</svg>
